# xmcd CD database file
# Copyright (C) 1993-1996 Ti Kan
#
# Track frame offsets:
#	150
#	19431
#	51981
#	68033
#	87529
#	111157
#	135382
#	175892
#	201259
#	221302
#	244573
#	266321
#	292557
#	314395
#
# Disc length: 4401 seconds
#
# Revision: 1
# Processed by: cddbd v1.4b41PL1 Copyright (c) Steve Scherf et al.
# Submitted via: CDValet v3.01 - Copyright (c) 1997 Greg Leichner
#
DISCID=c4112f0e
DTITLE=Vera - The Slow Ones
DYEAR=1900
DGENRE=
TTITLE0=At This Moment
TTITLE1=Hotel California
TTITLE2=One and Only
TTITLE3=Running to Standstill
TTITLE4=All By Myself
TTITLE5=Something
TTITLE6=November Rain
TTITLE7=Moonlight Sonata
TTITLE8=In Love with You
TTITLE9=Wonderful Tonight
TTITLE10=Kiss From a Rose
TTITLE11=Silent Lucidity
TTITLE12=Wicked Game
TTITLE13=
EXTD=
EXTT0=
EXTT1=
EXTT2=
EXTT3=
EXTT4=
EXTT5=
EXTT6=
EXTT7=
EXTT8=
EXTT9=
EXTT10=
EXTT11=
EXTT12=
EXTT13=
PLAYORDER=
